<svg xmlns="http://www.w3.org/2000/svg" version="1.1" xmlns:xlink="http://www.w3.org/1999/xlink" xmlns:svgjs="http://svgjs.dev/svgjs" width="1440" height="560" preserveAspectRatio="none" viewBox="0 0 1440 560"><g mask="url(&quot;#SvgjsMask1015&quot;)" fill="none"><rect width="1440" height="560" x="0" y="0" fill="url(&quot;#SvgjsLinearGradient1016&quot;)"></rect><path d="M118.16 265.29L183.12 302.79L183.12 377.79L118.16 415.29L53.21 377.79L53.21 302.79zM248.07 40.29L313.02 77.79L313.02 152.79L248.07 190.29L183.12 152.79L183.12 77.79zM183.12 377.79L248.07 415.29L248.07 490.29L183.12 527.79L118.16 490.29L118.16 415.29zM377.98 490.29L442.93 527.79L442.93 602.79L377.98 640.29L313.02 602.79L313.02 527.79zM442.93 -72.21L507.89 -34.71L507.89 40.29L442.93 77.79L377.98 40.29L377.98 -34.71zM507.89 40.29L572.84 77.79L572.84 152.79L507.89 190.29L442.93 152.79L442.93 77.79zM507.89 490.29L572.84 527.79L572.84 602.79L507.89 640.29L442.93 602.79L442.93 527.79zM572.84 152.79L637.79 190.29L637.79 265.29L572.84 302.79L507.89 265.29L507.89 190.29zM767.7 265.29L832.66 302.79L832.66 377.79L767.7 415.29L702.75 377.79L702.75 302.79zM702.75 377.79L767.7 415.29L767.7 490.29L702.75 527.79L637.79 490.29L637.79 415.29zM832.65 -72.21L897.61 -34.71L897.61 40.29L832.65 77.79L767.7 40.29L767.7 -34.71zM897.61 40.29L962.56 77.79L962.56 152.79L897.61 190.29L832.65 152.79L832.65 77.79zM962.56 -72.21L1027.52 -34.71L1027.52 40.29L962.56 77.79L897.61 40.29L897.61 -34.71zM1157.42 490.29L1222.38 527.79L1222.38 602.79L1157.42 640.29L1092.47 602.79L1092.47 527.79zM1222.38 152.79L1287.33 190.29L1287.33 265.29L1222.38 302.79L1157.42 265.29L1157.42 190.29zM1287.33 265.29L1352.28 302.79L1352.28 377.79L1287.33 415.29L1222.38 377.79L1222.38 302.79zM1287.33 490.29L1352.28 527.79L1352.28 602.79L1287.33 640.29L1222.38 602.79L1222.38 527.79zM1417.24 40.29L1482.19 77.79L1482.19 152.79L1417.24 190.29L1352.29 152.79L1352.29 77.79zM1417.24 265.29L1482.19 302.79L1482.19 377.79L1417.24 415.29L1352.29 377.79L1352.29 302.79zM1547.15 40.29L1612.1 77.79L1612.1 152.79L1547.15 190.29L1482.19 152.79L1482.19 77.79zM1482.19 152.79L1547.15 190.29L1547.15 265.29L1482.19 302.79L1417.24 265.29L1417.24 190.29z" stroke="#03305d" stroke-width="2"></path><path d="M110.66 265.29 a7.5 7.5 0 1 0 15 0 a7.5 7.5 0 1 0 -15 0zM175.62 302.79 a7.5 7.5 0 1 0 15 0 a7.5 7.5 0 1 0 -15 0zM175.62 377.79 a7.5 7.5 0 1 0 15 0 a7.5 7.5 0 1 0 -15 0zM110.66 415.29 a7.5 7.5 0 1 0 15 0 a7.5 7.5 0 1 0 -15 0zM45.71 377.79 a7.5 7.5 0 1 0 15 0 a7.5 7.5 0 1 0 -15 0zM45.71 302.79 a7.5 7.5 0 1 0 15 0 a7.5 7.5 0 1 0 -15 0zM240.57 40.29 a7.5 7.5 0 1 0 15 0 a7.5 7.5 0 1 0 -15 0zM305.52 77.79 a7.5 7.5 0 1 0 15 0 a7.5 7.5 0 1 0 -15 0zM305.52 152.79 a7.5 7.5 0 1 0 15 0 a7.5 7.5 0 1 0 -15 0zM240.57 190.29 a7.5 7.5 0 1 0 15 0 a7.5 7.5 0 1 0 -15 0zM175.62 152.79 a7.5 7.5 0 1 0 15 0 a7.5 7.5 0 1 0 -15 0zM175.62 77.79 a7.5 7.5 0 1 0 15 0 a7.5 7.5 0 1 0 -15 0zM240.57 415.29 a7.5 7.5 0 1 0 15 0 a7.5 7.5 0 1 0 -15 0zM240.57 490.29 a7.5 7.5 0 1 0 15 0 a7.5 7.5 0 1 0 -15 0zM175.62 527.79 a7.5 7.5 0 1 0 15 0 a7.5 7.5 0 1 0 -15 0zM110.66 490.29 a7.5 7.5 0 1 0 15 0 a7.5 7.5 0 1 0 -15 0zM370.48 490.29 a7.5 7.5 0 1 0 15 0 a7.5 7.5 0 1 0 -15 0zM435.43 527.79 a7.5 7.5 0 1 0 15 0 a7.5 7.5 0 1 0 -15 0zM435.43 602.79 a7.5 7.5 0 1 0 15 0 a7.5 7.5 0 1 0 -15 0zM370.48 640.29 a7.5 7.5 0 1 0 15 0 a7.5 7.5 0 1 0 -15 0zM305.52 602.79 a7.5 7.5 0 1 0 15 0 a7.5 7.5 0 1 0 -15 0zM305.52 527.79 a7.5 7.5 0 1 0 15 0 a7.5 7.5 0 1 0 -15 0zM435.43 -72.21 a7.5 7.5 0 1 0 15 0 a7.5 7.5 0 1 0 -15 0zM500.39 -34.71 a7.5 7.5 0 1 0 15 0 a7.5 7.5 0 1 0 -15 0zM500.39 40.29 a7.5 7.5 0 1 0 15 0 a7.5 7.5 0 1 0 -15 0zM435.43 77.79 a7.5 7.5 0 1 0 15 0 a7.5 7.5 0 1 0 -15 0zM370.48 40.29 a7.5 7.5 0 1 0 15 0 a7.5 7.5 0 1 0 -15 0zM370.48 -34.71 a7.5 7.5 0 1 0 15 0 a7.5 7.5 0 1 0 -15 0zM565.34 77.79 a7.5 7.5 0 1 0 15 0 a7.5 7.5 0 1 0 -15 0zM565.34 152.79 a7.5 7.5 0 1 0 15 0 a7.5 7.5 0 1 0 -15 0zM500.39 190.29 a7.5 7.5 0 1 0 15 0 a7.5 7.5 0 1 0 -15 0zM435.43 152.79 a7.5 7.5 0 1 0 15 0 a7.5 7.5 0 1 0 -15 0zM500.39 490.29 a7.5 7.5 0 1 0 15 0 a7.5 7.5 0 1 0 -15 0zM565.34 527.79 a7.5 7.5 0 1 0 15 0 a7.5 7.5 0 1 0 -15 0zM565.34 602.79 a7.5 7.5 0 1 0 15 0 a7.5 7.5 0 1 0 -15 0zM500.39 640.29 a7.5 7.5 0 1 0 15 0 a7.5 7.5 0 1 0 -15 0zM630.29 190.29 a7.5 7.5 0 1 0 15 0 a7.5 7.5 0 1 0 -15 0zM630.29 265.29 a7.5 7.5 0 1 0 15 0 a7.5 7.5 0 1 0 -15 0zM565.34 302.79 a7.5 7.5 0 1 0 15 0 a7.5 7.5 0 1 0 -15 0zM500.39 265.29 a7.5 7.5 0 1 0 15 0 a7.5 7.5 0 1 0 -15 0zM760.2 265.29 a7.5 7.5 0 1 0 15 0 a7.5 7.5 0 1 0 -15 0zM825.16 302.79 a7.5 7.5 0 1 0 15 0 a7.5 7.5 0 1 0 -15 0zM825.16 377.79 a7.5 7.5 0 1 0 15 0 a7.5 7.5 0 1 0 -15 0zM760.2 415.29 a7.5 7.5 0 1 0 15 0 a7.5 7.5 0 1 0 -15 0zM695.25 377.79 a7.5 7.5 0 1 0 15 0 a7.5 7.5 0 1 0 -15 0zM695.25 302.79 a7.5 7.5 0 1 0 15 0 a7.5 7.5 0 1 0 -15 0zM760.2 490.29 a7.5 7.5 0 1 0 15 0 a7.5 7.5 0 1 0 -15 0zM695.25 527.79 a7.5 7.5 0 1 0 15 0 a7.5 7.5 0 1 0 -15 0zM630.29 490.29 a7.5 7.5 0 1 0 15 0 a7.5 7.5 0 1 0 -15 0zM630.29 415.29 a7.5 7.5 0 1 0 15 0 a7.5 7.5 0 1 0 -15 0zM825.15 -72.21 a7.5 7.5 0 1 0 15 0 a7.5 7.5 0 1 0 -15 0zM890.11 -34.71 a7.5 7.5 0 1 0 15 0 a7.5 7.5 0 1 0 -15 0zM890.11 40.29 a7.5 7.5 0 1 0 15 0 a7.5 7.5 0 1 0 -15 0zM825.15 77.79 a7.5 7.5 0 1 0 15 0 a7.5 7.5 0 1 0 -15 0zM760.2 40.29 a7.5 7.5 0 1 0 15 0 a7.5 7.5 0 1 0 -15 0zM760.2 -34.71 a7.5 7.5 0 1 0 15 0 a7.5 7.5 0 1 0 -15 0zM955.06 77.79 a7.5 7.5 0 1 0 15 0 a7.5 7.5 0 1 0 -15 0zM955.06 152.79 a7.5 7.5 0 1 0 15 0 a7.5 7.5 0 1 0 -15 0zM890.11 190.29 a7.5 7.5 0 1 0 15 0 a7.5 7.5 0 1 0 -15 0zM825.15 152.79 a7.5 7.5 0 1 0 15 0 a7.5 7.5 0 1 0 -15 0zM955.06 -72.21 a7.5 7.5 0 1 0 15 0 a7.5 7.5 0 1 0 -15 0zM1020.02 -34.71 a7.5 7.5 0 1 0 15 0 a7.5 7.5 0 1 0 -15 0zM1020.02 40.29 a7.5 7.5 0 1 0 15 0 a7.5 7.5 0 1 0 -15 0zM1149.92 490.29 a7.5 7.5 0 1 0 15 0 a7.5 7.5 0 1 0 -15 0zM1214.88 527.79 a7.5 7.5 0 1 0 15 0 a7.5 7.5 0 1 0 -15 0zM1214.88 602.79 a7.5 7.5 0 1 0 15 0 a7.5 7.5 0 1 0 -15 0zM1149.92 640.29 a7.5 7.5 0 1 0 15 0 a7.5 7.5 0 1 0 -15 0zM1084.97 602.79 a7.5 7.5 0 1 0 15 0 a7.5 7.5 0 1 0 -15 0zM1084.97 527.79 a7.5 7.5 0 1 0 15 0 a7.5 7.5 0 1 0 -15 0zM1214.88 152.79 a7.5 7.5 0 1 0 15 0 a7.5 7.5 0 1 0 -15 0zM1279.83 190.29 a7.5 7.5 0 1 0 15 0 a7.5 7.5 0 1 0 -15 0zM1279.83 265.29 a7.5 7.5 0 1 0 15 0 a7.5 7.5 0 1 0 -15 0zM1214.88 302.79 a7.5 7.5 0 1 0 15 0 a7.5 7.5 0 1 0 -15 0zM1149.92 265.29 a7.5 7.5 0 1 0 15 0 a7.5 7.5 0 1 0 -15 0zM1149.92 190.29 a7.5 7.5 0 1 0 15 0 a7.5 7.5 0 1 0 -15 0zM1344.78 302.79 a7.5 7.5 0 1 0 15 0 a7.5 7.5 0 1 0 -15 0zM1344.78 377.79 a7.5 7.5 0 1 0 15 0 a7.5 7.5 0 1 0 -15 0zM1279.83 415.29 a7.5 7.5 0 1 0 15 0 a7.5 7.5 0 1 0 -15 0zM1214.88 377.79 a7.5 7.5 0 1 0 15 0 a7.5 7.5 0 1 0 -15 0zM1279.83 490.29 a7.5 7.5 0 1 0 15 0 a7.5 7.5 0 1 0 -15 0zM1344.78 527.79 a7.5 7.5 0 1 0 15 0 a7.5 7.5 0 1 0 -15 0zM1344.78 602.79 a7.5 7.5 0 1 0 15 0 a7.5 7.5 0 1 0 -15 0zM1279.83 640.29 a7.5 7.5 0 1 0 15 0 a7.5 7.5 0 1 0 -15 0zM1409.74 40.29 a7.5 7.5 0 1 0 15 0 a7.5 7.5 0 1 0 -15 0zM1474.69 77.79 a7.5 7.5 0 1 0 15 0 a7.5 7.5 0 1 0 -15 0zM1474.69 152.79 a7.5 7.5 0 1 0 15 0 a7.5 7.5 0 1 0 -15 0zM1409.74 190.29 a7.5 7.5 0 1 0 15 0 a7.5 7.5 0 1 0 -15 0zM1344.79 152.79 a7.5 7.5 0 1 0 15 0 a7.5 7.5 0 1 0 -15 0zM1344.79 77.79 a7.5 7.5 0 1 0 15 0 a7.5 7.5 0 1 0 -15 0zM1409.74 265.29 a7.5 7.5 0 1 0 15 0 a7.5 7.5 0 1 0 -15 0zM1474.69 302.79 a7.5 7.5 0 1 0 15 0 a7.5 7.5 0 1 0 -15 0zM1474.69 377.79 a7.5 7.5 0 1 0 15 0 a7.5 7.5 0 1 0 -15 0zM1409.74 415.29 a7.5 7.5 0 1 0 15 0 a7.5 7.5 0 1 0 -15 0zM1344.79 377.79 a7.5 7.5 0 1 0 15 0 a7.5 7.5 0 1 0 -15 0zM1344.79 302.79 a7.5 7.5 0 1 0 15 0 a7.5 7.5 0 1 0 -15 0zM1539.65 40.29 a7.5 7.5 0 1 0 15 0 a7.5 7.5 0 1 0 -15 0zM1604.6 77.79 a7.5 7.5 0 1 0 15 0 a7.5 7.5 0 1 0 -15 0zM1604.6 152.79 a7.5 7.5 0 1 0 15 0 a7.5 7.5 0 1 0 -15 0zM1539.65 190.29 a7.5 7.5 0 1 0 15 0 a7.5 7.5 0 1 0 -15 0zM1539.65 265.29 a7.5 7.5 0 1 0 15 0 a7.5 7.5 0 1 0 -15 0z" fill="#03305d"></path><path d="M49.93 195.34L93.23 220.34L93.23 270.34L49.93 295.34L6.63 270.34L6.63 220.34zM49.93 345.34L93.23 370.34L93.23 420.34L49.93 445.34L6.63 420.34L6.63 370.34zM6.63 420.34L49.93 445.34L49.93 495.34L6.63 520.34L-36.67 495.34L-36.67 445.34zM49.93 495.34L93.23 520.34L93.23 570.34L49.93 595.34L6.63 570.34L6.63 520.34zM136.54 45.34L179.84 70.34L179.84 120.34L136.54 145.34L93.23 120.34L93.23 70.34zM93.23 420.34L136.54 445.34L136.54 495.34L93.23 520.34L49.93 495.34L49.93 445.34zM223.14 45.34L266.44 70.34L266.44 120.34L223.14 145.34L179.84 120.34L179.84 70.34zM179.84 270.34L223.14 295.34L223.14 345.34L179.84 370.34L136.54 345.34L136.54 295.34zM223.14 345.34L266.44 370.34L266.44 420.34L223.14 445.34L179.84 420.34L179.84 370.34zM266.44 270.34L309.75 295.34L309.75 345.34L266.44 370.34L223.14 345.34L223.14 295.34zM309.75 495.34L353.05 520.34L353.05 570.34L309.75 595.34L266.44 570.34L266.44 520.34zM482.96 45.34L526.26 70.34L526.26 120.34L482.96 145.34L439.66 120.34L439.66 70.34zM482.96 345.34L526.26 370.34L526.26 420.34L482.96 445.34L439.66 420.34L439.66 370.34zM569.56 45.34L612.87 70.34L612.87 120.34L569.56 145.34L526.26 120.34L526.26 70.34zM569.56 195.34L612.87 220.34L612.87 270.34L569.56 295.34L526.26 270.34L526.26 220.34zM569.56 345.34L612.87 370.34L612.87 420.34L569.56 445.34L526.26 420.34L526.26 370.34zM612.87 120.34L656.17 145.34L656.17 195.34L612.87 220.34L569.56 195.34L569.56 145.34zM656.17 345.34L699.47 370.34L699.47 420.34L656.17 445.34L612.87 420.34L612.87 370.34zM612.87 420.34L656.17 445.34L656.17 495.34L612.87 520.34L569.56 495.34L569.56 445.34zM699.47 270.34L742.77 295.34L742.77 345.34L699.47 370.34L656.17 345.34L656.17 295.34zM829.38 195.34L872.68 220.34L872.68 270.34L829.38 295.34L786.08 270.34L786.08 220.34zM786.08 420.34L829.38 445.34L829.38 495.34L786.08 520.34L742.77 495.34L742.77 445.34zM915.98 195.34L959.29 220.34L959.29 270.34L915.98 295.34L872.68 270.34L872.68 220.34zM915.98 495.34L959.29 520.34L959.29 570.34L915.98 595.34L872.68 570.34L872.68 520.34zM1002.59 45.34L1045.89 70.34L1045.89 120.34L1002.59 145.34L959.29 120.34L959.29 70.34zM1045.89 270.34L1089.19 295.34L1089.19 345.34L1045.89 370.34L1002.59 345.34L1002.59 295.34zM1132.5 270.34L1175.8 295.34L1175.8 345.34L1132.5 370.34L1089.19 345.34L1089.19 295.34zM1262.4 195.34L1305.71 220.34L1305.71 270.34L1262.4 295.34L1219.1 270.34L1219.1 220.34zM1349.01 45.34L1392.31 70.34L1392.31 120.34L1349.01 145.34L1305.71 120.34L1305.71 70.34zM1349.01 495.34L1392.31 520.34L1392.31 570.34L1349.01 595.34L1305.71 570.34L1305.71 520.34zM1392.31 -29.66L1435.61 -4.66L1435.61 45.34L1392.31 70.34L1349.01 45.34L1349.01 -4.66zM1435.61 45.34L1478.92 70.34L1478.92 120.34L1435.61 145.34L1392.31 120.34L1392.31 70.34zM1435.61 195.34L1478.92 220.34L1478.92 270.34L1435.61 295.34L1392.31 270.34L1392.31 220.34zM1435.61 345.34L1478.92 370.34L1478.92 420.34L1435.61 445.34L1392.31 420.34L1392.31 370.34z" stroke="rgba(6, 80, 156, 0.93)" stroke-width="2"></path></g><defs><mask id="SvgjsMask1015"><rect width="1440" height="560" fill="#ffffff"></rect></mask><linearGradient x1="15.28%" y1="-39.29%" x2="84.72%" y2="139.29%" gradientUnits="userSpaceOnUse" id="SvgjsLinearGradient1016"><stop stop-color="#0e2a47" offset="0"></stop><stop stop-color="rgba(105, 0, 158, 0.37)" offset="1"></stop></linearGradient></defs></svg>