<svg xmlns="http://www.w3.org/2000/svg" viewBox="0 0 750 500"><g id="freepik--background-simple--inject-1"><path d="M682.67,447.93c7.6-27.17,49-181.79,17.26-220-34.79-42-81.87,57.31-96.2,60.38s0-202.63-114.62-239.47S386.77,212.55,368.35,248.37,178,44.72,138.09,117.38s24.56,182.16,4.47,179.34-66.9-70.86-99.64-3.32C13.08,354.94,52,434.3,59.21,447.93Z" style="fill:#92E3A9"></path><path d="M682.67,447.93c7.6-27.17,49-181.79,17.26-220-34.79-42-81.87,57.31-96.2,60.38s0-202.63-114.62-239.47S386.77,212.55,368.35,248.37,178,44.72,138.09,117.38s24.56,182.16,4.47,179.34-66.9-70.86-99.64-3.32C13.08,354.94,52,434.3,59.21,447.93Z" style="fill:#fff;opacity:0.7000000000000001"></path></g><g id="freepik--Floor--inject-1"><line x1="17.33" y1="447.93" x2="727.75" y2="447.93" style="fill:none;stroke:#263238;stroke-linecap:round;stroke-linejoin:round"></line></g><g id="freepik--Circles--inject-1"><circle cx="100.23" cy="112.5" r="17.4" transform="translate(-26.88 193.41) rotate(-80.78)" style="fill:#92E3A9"></circle><circle cx="177.49" cy="67.99" r="5.63" style="fill:#92E3A9"></circle><path d="M67.48,160.6A5.63,5.63,0,1,1,61.85,155,5.63,5.63,0,0,1,67.48,160.6Z" style="fill:#92E3A9"></path><circle cx="259.87" cy="78.73" r="14.84" transform="translate(20.44 206.82) rotate(-45)" style="fill:#92E3A9"></circle><path d="M373.47,51.1A6.14,6.14,0,1,1,367.33,45,6.14,6.14,0,0,1,373.47,51.1Z" style="fill:#92E3A9"></path><circle cx="473.25" cy="110.97" r="17.91" transform="translate(288.31 560.5) rotate(-80.83)" style="fill:#92E3A9"></circle><circle cx="581.53" cy="67.16" r="10.95" style="fill:#92E3A9"></circle><path d="M133,161.63a6.65,6.65,0,1,1-6.65-6.66A6.65,6.65,0,0,1,133,161.63Z" style="fill:#92E3A9"></path><path d="M592.48,132a7.17,7.17,0,1,1-7.17-7.17A7.17,7.17,0,0,1,592.48,132Z" style="fill:#92E3A9"></path><circle cx="669.23" cy="77.71" r="7.16" style="fill:#92E3A9"></circle><circle cx="693.79" cy="191.3" r="16.58" transform="translate(349.26 823.16) rotate(-76.81)" style="fill:#92E3A9"></circle><circle cx="668.72" cy="170.32" r="8.7" style="fill:#92E3A9"></circle><circle cx="409.29" cy="197.96" r="8.7" transform="translate(148.49 570.37) rotate(-80.81)" style="fill:#92E3A9"></circle></g><g id="freepik--Plant--inject-1"><line x1="45.55" y1="271.9" x2="59.48" y2="405.32" style="fill:none;stroke:#263238;stroke-miterlimit:10;stroke-width:2px"></line><line x1="57.23" y1="379.79" x2="50.92" y2="373.12" style="fill:none;stroke:#263238;stroke-miterlimit:10;stroke-width:2px"></line><path d="M52.84,375.12a7.14,7.14,0,0,0-2.51-5.35c-1.62-1.45-10.15-5-11-2C38.49,371,47.22,377.42,52.84,375.12Z" style="fill:#92E3A9;stroke:#263238;stroke-miterlimit:10"></path><line x1="52.84" y1="375.12" x2="44.72" y2="370.06" style="fill:none;stroke:#263238;stroke-miterlimit:10;stroke-width:0.5px"></line><line x1="58.82" y1="394.96" x2="52.5" y2="388.3" style="fill:none;stroke:#263238;stroke-miterlimit:10;stroke-width:2px"></line><path d="M54.42,390.29a7.14,7.14,0,0,0-2.51-5.35c-1.62-1.45-10.15-5-11-2C40.07,386.17,48.8,392.59,54.42,390.29Z" style="fill:#92E3A9;stroke:#263238;stroke-miterlimit:10"></path><line x1="54.42" y1="390.29" x2="46.3" y2="385.23" style="fill:none;stroke:#263238;stroke-miterlimit:10;stroke-width:0.5px"></line><line x1="53.37" y1="342.76" x2="47.06" y2="336.09" style="fill:none;stroke:#263238;stroke-miterlimit:10;stroke-width:2px"></line><path d="M49,338.09a7.1,7.1,0,0,0-2.51-5.35c-1.62-1.45-10.15-5-11-2C34.63,334,43.35,340.39,49,338.09Z" style="fill:#92E3A9;stroke:#263238;stroke-miterlimit:10"></path><line x1="48.97" y1="338.09" x2="40.86" y2="333.03" style="fill:none;stroke:#263238;stroke-miterlimit:10;stroke-width:0.5px"></line><line x1="54.95" y1="357.94" x2="48.64" y2="351.27" style="fill:none;stroke:#263238;stroke-miterlimit:10;stroke-width:2px"></line><path d="M50.56,353.27a7.17,7.17,0,0,0-2.51-5.36c-1.62-1.45-10.15-5-11-2C36.21,349.15,44.94,355.56,50.56,353.27Z" style="fill:#92E3A9;stroke:#263238;stroke-miterlimit:10"></path><line x1="50.56" y1="353.27" x2="42.44" y2="348.21" style="fill:none;stroke:#263238;stroke-miterlimit:10;stroke-width:0.5px"></line><line x1="50.8" y1="318.11" x2="44.48" y2="311.45" style="fill:none;stroke:#263238;stroke-miterlimit:10;stroke-width:2px"></line><path d="M46.4,313.44a7.14,7.14,0,0,0-2.51-5.35c-1.62-1.45-10.15-5-11-2C32.05,309.32,40.78,315.74,46.4,313.44Z" style="fill:#92E3A9;stroke:#263238;stroke-miterlimit:10"></path><line x1="46.4" y1="313.44" x2="38.28" y2="308.38" style="fill:none;stroke:#263238;stroke-miterlimit:10;stroke-width:0.5px"></line><line x1="48.21" y1="293.36" x2="41.9" y2="286.69" style="fill:none;stroke:#263238;stroke-miterlimit:10;stroke-width:2px"></line><path d="M43.82,288.69a7.17,7.17,0,0,0-2.51-5.36c-1.62-1.45-10.15-5-11-2C29.47,284.57,38.2,291,43.82,288.69Z" style="fill:#92E3A9;stroke:#263238;stroke-miterlimit:10"></path><line x1="43.82" y1="288.69" x2="35.7" y2="283.63" style="fill:none;stroke:#263238;stroke-miterlimit:10;stroke-width:0.5px"></line><line x1="56.17" y1="370.81" x2="60.97" y2="362.98" style="fill:none;stroke:#263238;stroke-miterlimit:10;stroke-width:2px"></line><path d="M59.51,365.33a7.12,7.12,0,0,1,1.35-5.75c1.29-1.75,8.89-7,10.3-4.25C72.7,358.34,65.48,366.42,59.51,365.33Z" style="fill:#92E3A9;stroke:#263238;stroke-miterlimit:10"></path><line x1="59.51" y1="365.33" x2="66.82" y2="358.35" style="fill:none;stroke:#263238;stroke-miterlimit:10;stroke-width:0.5px"></line><line x1="52.01" y1="330.88" x2="56.81" y2="323.05" style="fill:none;stroke:#263238;stroke-miterlimit:10;stroke-width:2px"></line><path d="M55.34,325.4a7.16,7.16,0,0,1,1.35-5.75c1.29-1.75,8.89-7,10.3-4.25C68.53,318.41,61.31,326.49,55.34,325.4Z" style="fill:#92E3A9;stroke:#263238;stroke-miterlimit:10"></path><line x1="55.34" y1="325.4" x2="62.65" y2="318.42" style="fill:none;stroke:#263238;stroke-miterlimit:10;stroke-width:0.5px"></line><line x1="50.17" y1="313.33" x2="54.97" y2="305.51" style="fill:none;stroke:#263238;stroke-miterlimit:10;stroke-width:2px"></line><path d="M53.51,307.86a7.14,7.14,0,0,1,1.35-5.76c1.29-1.75,8.89-7,10.3-4.25C66.7,300.86,59.48,308.94,53.51,307.86Z" style="fill:#92E3A9;stroke:#263238;stroke-miterlimit:10"></path><line x1="53.51" y1="307.86" x2="60.82" y2="300.87" style="fill:none;stroke:#263238;stroke-miterlimit:10;stroke-width:0.5px"></line><line x1="47.49" y1="287.61" x2="52.29" y2="279.78" style="fill:none;stroke:#263238;stroke-miterlimit:10;stroke-width:2px"></line><path d="M50.82,282.13a7.17,7.17,0,0,1,1.36-5.76c1.28-1.75,8.89-7,10.3-4.25C64,275.14,56.8,283.22,50.82,282.13Z" style="fill:#92E3A9;stroke:#263238;stroke-miterlimit:10"></path><line x1="50.82" y1="282.13" x2="58.13" y2="275.14" style="fill:none;stroke:#263238;stroke-miterlimit:10;stroke-width:0.5px"></line><path d="M45.44,271.16a7.14,7.14,0,0,1,1.35-5.76c1.29-1.75,8.89-7,10.3-4.25C58.63,264.17,51.41,272.25,45.44,271.16Z" style="fill:#92E3A9;stroke:#263238;stroke-miterlimit:10"></path><line x1="45.44" y1="271.16" x2="52.75" y2="264.17" style="fill:none;stroke:#263238;stroke-miterlimit:10;stroke-width:0.5px"></line><path d="M45.86,271.46a7.14,7.14,0,0,1-5.58-1.95c-1.61-1.46-6.05-9.58-3.15-10.69C40.29,257.61,47.57,265.63,45.86,271.46Z" style="fill:#92E3A9;stroke:#263238;stroke-miterlimit:10"></path><line x1="45.86" y1="271.46" x2="39.68" y2="263.46" style="fill:none;stroke:#263238;stroke-miterlimit:10;stroke-width:0.5px"></line><line x1="82.28" y1="290.27" x2="68.43" y2="423.71" style="fill:none;stroke:#263238;stroke-miterlimit:10;stroke-width:2px"></line><line x1="71.49" y1="398.26" x2="66.69" y2="390.43" style="fill:none;stroke:#263238;stroke-miterlimit:10;stroke-width:2px"></line><path d="M68.16,392.78A7.14,7.14,0,0,0,66.8,387c-1.29-1.75-8.89-7-10.3-4.25C55,385.8,62.18,393.87,68.16,392.78Z" style="fill:#92E3A9;stroke:#263238;stroke-miterlimit:10"></path><line x1="68.16" y1="392.78" x2="61.25" y2="386.16" style="fill:none;stroke:#263238;stroke-miterlimit:10;stroke-width:0.5px"></line><line x1="75.34" y1="361.23" x2="70.53" y2="353.4" style="fill:none;stroke:#263238;stroke-miterlimit:10;stroke-width:2px"></line><path d="M72,355.75A7.14,7.14,0,0,0,70.64,350c-1.29-1.75-8.89-7-10.3-4.25C58.8,348.77,66,356.84,72,355.75Z" style="fill:#92E3A9;stroke:#263238;stroke-miterlimit:10"></path><line x1="72" y1="355.75" x2="65.1" y2="349.13" style="fill:none;stroke:#263238;stroke-miterlimit:10;stroke-width:0.5px"></line><line x1="73.76" y1="376.4" x2="68.96" y2="368.58" style="fill:none;stroke:#263238;stroke-miterlimit:10;stroke-width:2px"></line><path d="M70.42,370.93a7.14,7.14,0,0,0-1.35-5.76c-1.29-1.75-8.9-7-10.31-4.24C57.23,363.94,64.45,372,70.42,370.93Z" style="fill:#92E3A9;stroke:#263238;stroke-miterlimit:10"></path><line x1="70.42" y1="370.93" x2="63.52" y2="364.31" style="fill:none;stroke:#263238;stroke-miterlimit:10;stroke-width:0.5px"></line><line x1="77.89" y1="336.58" x2="73.09" y2="328.75" style="fill:none;stroke:#263238;stroke-miterlimit:10;stroke-width:2px"></line><path d="M74.56,331.1a7.14,7.14,0,0,0-1.36-5.75c-1.29-1.75-8.89-7-10.3-4.25C61.36,324.12,68.58,332.19,74.56,331.1Z" style="fill:#92E3A9;stroke:#263238;stroke-miterlimit:10"></path><line x1="74.56" y1="331.1" x2="67.65" y2="324.48" style="fill:none;stroke:#263238;stroke-miterlimit:10;stroke-width:0.5px"></line><line x1="80.46" y1="311.82" x2="75.66" y2="303.99" style="fill:none;stroke:#263238;stroke-miterlimit:10;stroke-width:2px"></line><path d="M77.13,306.34a7.15,7.15,0,0,0-1.36-5.75c-1.29-1.75-8.89-7-10.3-4.25C63.93,299.36,71.15,307.43,77.13,306.34Z" style="fill:#92E3A9;stroke:#263238;stroke-miterlimit:10"></path><line x1="77.13" y1="306.34" x2="70.22" y2="299.72" style="fill:none;stroke:#263238;stroke-miterlimit:10;stroke-width:0.5px"></line><line x1="72.3" y1="389.25" x2="78.61" y2="382.58" style="fill:none;stroke:#263238;stroke-miterlimit:10;stroke-width:2px"></line><path d="M76.7,384.58a7.12,7.12,0,0,1,2.51-5.36c1.62-1.44,10.14-5,11-2C91,380.45,82.32,386.87,76.7,384.58Z" style="fill:#92E3A9;stroke:#263238;stroke-miterlimit:10"></path><line x1="76.7" y1="384.58" x2="85.29" y2="379.25" style="fill:none;stroke:#263238;stroke-miterlimit:10;stroke-width:0.5px"></line><line x1="76.45" y1="349.32" x2="82.76" y2="342.65" style="fill:none;stroke:#263238;stroke-miterlimit:10;stroke-width:2px"></line><path d="M80.84,344.65a7.17,7.17,0,0,1,2.51-5.36c1.62-1.45,10.14-5,11-2C95.19,340.52,86.46,346.94,80.84,344.65Z" style="fill:#92E3A9;stroke:#263238;stroke-miterlimit:10"></path><line x1="80.84" y1="344.65" x2="89.43" y2="339.32" style="fill:none;stroke:#263238;stroke-miterlimit:10;stroke-width:0.5px"></line><line x1="78.27" y1="331.77" x2="84.58" y2="325.1" style="fill:none;stroke:#263238;stroke-miterlimit:10;stroke-width:2px"></line><path d="M82.66,327.1a7.17,7.17,0,0,1,2.51-5.36c1.62-1.45,10.15-5,11-2C97,323,88.28,329.39,82.66,327.1Z" style="fill:#92E3A9;stroke:#263238;stroke-miterlimit:10"></path><line x1="82.66" y1="327.1" x2="91.25" y2="321.77" style="fill:none;stroke:#263238;stroke-miterlimit:10;stroke-width:0.5px"></line><line x1="80.94" y1="306.04" x2="87.25" y2="299.37" style="fill:none;stroke:#263238;stroke-miterlimit:10;stroke-width:2px"></line><path d="M85.33,301.37A7.14,7.14,0,0,1,87.84,296c1.62-1.45,10.14-5,11-2C99.68,297.24,91,303.66,85.33,301.37Z" style="fill:#92E3A9;stroke:#263238;stroke-miterlimit:10"></path><line x1="85.33" y1="301.37" x2="93.92" y2="296.04" style="fill:none;stroke:#263238;stroke-miterlimit:10;stroke-width:0.5px"></line><path d="M82.32,289.53a7.12,7.12,0,0,1,2.51-5.36c1.62-1.45,10.14-5,11-2C96.66,285.4,87.94,291.82,82.32,289.53Z" style="fill:#92E3A9;stroke:#263238;stroke-miterlimit:10"></path><line x1="82.32" y1="289.53" x2="90.91" y2="284.19" style="fill:none;stroke:#263238;stroke-miterlimit:10;stroke-width:0.5px"></line><path d="M82.67,289.91a7.15,7.15,0,0,1-5.06-3.06c-1.27-1.76-4-10.62-.88-11.11C80.07,275.21,85.54,284.56,82.67,289.91Z" style="fill:#92E3A9;stroke:#263238;stroke-miterlimit:10"></path><line x1="82.67" y1="289.91" x2="78.27" y2="280.8" style="fill:none;stroke:#263238;stroke-miterlimit:10;stroke-width:0.5px"></line><line x1="66.41" y1="235.94" x2="66.41" y2="404.67" style="fill:none;stroke:#263238;stroke-miterlimit:10;stroke-width:2px"></line><line x1="66.55" y1="379.3" x2="60.96" y2="372.02" style="fill:none;stroke:#263238;stroke-miterlimit:10;stroke-width:2px"></line><path d="M62.66,374.2a7.12,7.12,0,0,0-1.94-5.58c-1.46-1.61-9.57-6.06-10.69-3.16C48.82,368.62,56.83,375.9,62.66,374.2Z" style="fill:#92E3A9;stroke:#263238;stroke-miterlimit:10"></path><line x1="62.66" y1="374.2" x2="55.11" y2="368.33" style="fill:none;stroke:#263238;stroke-miterlimit:10;stroke-width:0.5px"></line><line x1="66.55" y1="347.59" x2="60.96" y2="340.31" style="fill:none;stroke:#263238;stroke-miterlimit:10;stroke-width:2px"></line><path d="M62.66,342.49a7.12,7.12,0,0,0-1.94-5.58c-1.46-1.61-9.57-6.06-10.69-3.16C48.82,336.91,56.83,344.19,62.66,342.49Z" style="fill:#92E3A9;stroke:#263238;stroke-miterlimit:10"></path><line x1="62.66" y1="342.49" x2="55.11" y2="336.62" style="fill:none;stroke:#263238;stroke-miterlimit:10;stroke-width:0.5px"></line><line x1="66.55" y1="310.37" x2="60.96" y2="303.08" style="fill:none;stroke:#263238;stroke-miterlimit:10;stroke-width:2px"></line><path d="M62.66,305.26a7.12,7.12,0,0,0-1.94-5.58c-1.46-1.61-9.57-6.06-10.69-3.16C48.82,299.68,56.83,307,62.66,305.26Z" style="fill:#92E3A9;stroke:#263238;stroke-miterlimit:10"></path><line x1="62.66" y1="305.26" x2="55.11" y2="299.39" style="fill:none;stroke:#263238;stroke-miterlimit:10;stroke-width:0.5px"></line><line x1="66.55" y1="285.58" x2="60.96" y2="278.3" style="fill:none;stroke:#263238;stroke-miterlimit:10;stroke-width:2px"></line><path d="M62.66,280.48a7.12,7.12,0,0,0-1.94-5.58c-1.46-1.61-9.57-6.07-10.69-3.16C48.82,274.9,56.83,282.18,62.66,280.48Z" style="fill:#92E3A9;stroke:#263238;stroke-miterlimit:10"></path><line x1="62.66" y1="280.48" x2="55.11" y2="274.61" style="fill:none;stroke:#263238;stroke-miterlimit:10;stroke-width:0.5px"></line><line x1="66.55" y1="260.69" x2="60.96" y2="253.4" style="fill:none;stroke:#263238;stroke-miterlimit:10;stroke-width:2px"></line><path d="M62.66,255.59A7.15,7.15,0,0,0,60.72,250c-1.46-1.6-9.57-6.06-10.69-3.15C48.82,250,56.83,257.29,62.66,255.59Z" style="fill:#92E3A9;stroke:#263238;stroke-miterlimit:10"></path><line x1="62.66" y1="255.59" x2="55.11" y2="249.72" style="fill:none;stroke:#263238;stroke-miterlimit:10;stroke-width:0.5px"></line><line x1="66.42" y1="388.99" x2="72.01" y2="381.7" style="fill:none;stroke:#263238;stroke-miterlimit:10;stroke-width:2px"></line><path d="M70.31,383.89a7.14,7.14,0,0,1,1.94-5.59c1.46-1.61,9.57-6.06,10.69-3.16C84.15,378.3,76.14,385.59,70.31,383.89Z" style="fill:#92E3A9;stroke:#263238;stroke-miterlimit:10"></path><line x1="70.31" y1="383.89" x2="78.31" y2="377.7" style="fill:none;stroke:#263238;stroke-miterlimit:10;stroke-width:0.5px"></line><line x1="66.42" y1="338.55" x2="72.01" y2="331.27" style="fill:none;stroke:#263238;stroke-miterlimit:10;stroke-width:2px"></line><path d="M70.31,333.45a7.12,7.12,0,0,1,1.94-5.58c1.46-1.61,9.57-6.06,10.69-3.16C84.15,327.87,76.14,335.15,70.31,333.45Z" style="fill:#92E3A9;stroke:#263238;stroke-miterlimit:10"></path><line x1="70.31" y1="333.45" x2="78.31" y2="327.26" style="fill:none;stroke:#263238;stroke-miterlimit:10;stroke-width:0.5px"></line><line x1="66.42" y1="313.66" x2="72.01" y2="306.38" style="fill:none;stroke:#263238;stroke-miterlimit:10;stroke-width:2px"></line><path d="M70.31,308.56A7.12,7.12,0,0,1,72.25,303c1.46-1.61,9.57-6.06,10.69-3.16C84.15,303,76.14,310.26,70.31,308.56Z" style="fill:#92E3A9;stroke:#263238;stroke-miterlimit:10"></path><line x1="70.31" y1="308.56" x2="78.31" y2="302.37" style="fill:none;stroke:#263238;stroke-miterlimit:10;stroke-width:0.5px"></line><line x1="66.42" y1="280.76" x2="72.01" y2="273.48" style="fill:none;stroke:#263238;stroke-miterlimit:10;stroke-width:2px"></line><path d="M70.31,275.66a7.12,7.12,0,0,1,1.94-5.58c1.46-1.61,9.57-6.06,10.69-3.16C84.15,270.08,76.14,277.36,70.31,275.66Z" style="fill:#92E3A9;stroke:#263238;stroke-miterlimit:10"></path><line x1="70.31" y1="275.66" x2="78.31" y2="269.47" style="fill:none;stroke:#263238;stroke-miterlimit:10;stroke-width:0.5px"></line><line x1="66.42" y1="254.9" x2="72.01" y2="247.61" style="fill:none;stroke:#263238;stroke-miterlimit:10;stroke-width:2px"></line><path d="M70.31,249.8a7.14,7.14,0,0,1,1.94-5.59c1.46-1.61,9.57-6.06,10.69-3.16C84.15,244.21,76.14,251.5,70.31,249.8Z" style="fill:#92E3A9;stroke:#263238;stroke-miterlimit:10"></path><line x1="70.31" y1="249.8" x2="78.31" y2="243.61" style="fill:none;stroke:#263238;stroke-miterlimit:10;stroke-width:0.5px"></line><path d="M66.09,238.33A7.14,7.14,0,0,1,68,232.74c1.46-1.61,9.57-6.06,10.69-3.16C79.93,232.74,71.92,240,66.09,238.33Z" style="fill:#92E3A9;stroke:#263238;stroke-miterlimit:10"></path><line x1="66.09" y1="238.33" x2="74.08" y2="232.14" style="fill:none;stroke:#263238;stroke-miterlimit:10;stroke-width:0.5px"></line><path d="M66.48,238.67a7.13,7.13,0,0,1-5.35-2.52c-1.45-1.62-5-10.15-2-11C62.38,224.32,68.78,233.05,66.48,238.67Z" style="fill:#92E3A9;stroke:#263238;stroke-miterlimit:10"></path><line x1="66.48" y1="238.67" x2="61.16" y2="230.07" style="fill:none;stroke:#263238;stroke-miterlimit:10;stroke-width:0.5px"></line><polygon points="73.35 448.44 55.48 448.44 53.25 403.31 75.59 403.31 73.35 448.44" style="fill:#263238;stroke:#263238;stroke-miterlimit:10"></polygon></g><g id="freepik--musical-notes--inject-1"><path d="M641.22,105.52c1.42,3.47,2.79,6.79,4.15,10.11,1.11,2.67,2.1,5.41,3.35,8s-1.06,5.87-3.35,6.45a2.06,2.06,0,0,1-2.74-2.12c-.09-2.33,1.71-4.33,4.69-5.06l-4-9.79c-4.11,2.66-8.09,5.2-12,7.83-.26.17-.28,1.07-.11,1.51,1.28,3.25,2.64,6.48,4,9.72a4.7,4.7,0,0,1-2.77,6.39,2.85,2.85,0,0,1-2.4-.18,3.09,3.09,0,0,1-.71-2.47c.45-2.37,2-3.78,4.55-4.29-2.3-5.54-4.56-11-6.86-16.58Zm-11.33,13.74,12.5-8.34c-.27-.61-.49-1.13-.76-1.76L629,117.32Z" style="fill:#263238"></path><path d="M643.25,188.54c1,2.34,1.88,4.59,2.81,6.83.74,1.81,1.42,3.66,2.26,5.42s-.72,4-2.27,4.35a1.39,1.39,0,0,1-1.85-1.43c-.06-1.57,1.16-2.92,3.17-3.42l-2.72-6.61c-2.77,1.79-5.46,3.51-8.11,5.29-.18.11-.19.72-.07,1,.86,2.21,1.78,4.38,2.66,6.58a3.17,3.17,0,0,1-1.86,4.32,2,2,0,0,1-1.63-.13,2.09,2.09,0,0,1-.48-1.67,3.53,3.53,0,0,1,3.07-2.89c-1.54-3.75-3.07-7.45-4.63-11.21Zm-7.66,9.29,8.45-5.64-.51-1.19L635,196.51Z" style="fill:#263238"></path><path d="M102.51,196.87l2.8,6.83c.75,1.81,1.42,3.65,2.27,5.41s-.72,4-2.27,4.36a1.39,1.39,0,0,1-1.85-1.43c-.06-1.58,1.16-2.93,3.17-3.42-.89-2.18-1.78-4.34-2.72-6.62-2.77,1.8-5.46,3.52-8.11,5.29-.18.12-.19.72-.07,1,.86,2.2,1.78,4.38,2.66,6.57a3.18,3.18,0,0,1-1.87,4.32,1.91,1.91,0,0,1-1.62-.12,2.09,2.09,0,0,1-.48-1.67,3.53,3.53,0,0,1,3.07-2.9c-1.55-3.74-3.08-7.44-4.63-11.21Zm-7.66,9.28,8.45-5.64c-.18-.41-.34-.76-.52-1.18l-8.51,5.51Z" style="fill:#263238"></path><path d="M437.86,222.88v0l-14.77.51c-.79,5.15-1.58,10.21-2.37,15.33a4.47,4.47,0,0,0-5.26,1.08,2.68,2.68,0,0,0-.58,2.15,2.46,2.46,0,0,0,1.68,1.22,4,4,0,0,0,4.9-3.44c.48-3,.92-6,1.44-9,.07-.4.49-1,.76-1.06,4-.15,8.07-.22,12.25-.3-.46,2.95-.91,5.89-1.37,8.85a4.44,4.44,0,0,0-5.26,1.08,2.42,2.42,0,0,0-.41.69h0a1.8,1.8,0,0,0,1.07,2.81c1.95.61,5.1-.65,5.35-3.22.06-.55.13-1.1.2-1.65.41-2.55.8-5.11,1.24-7.66.07-.4.48-1.05.76-1.06,4.06-.15,8.12-.21,12.33-.3-.49,3.12-.95,6.07-1.42,9-2.52-.82-4.74-.17-5.71,1.59a1.79,1.79,0,0,0,1.07,2.8c1.94.62,5.1-.64,5.35-3.21s.74-4.95,1.12-7.43l1.46-9.33Zm-14.48,4.94c.08-.64.15-1.18.24-1.82l12.86-.27c-.09.54-.17,1.09-.26,1.64Zm26.75-.91-12.93.45.2-1.57a2.17,2.17,0,0,0,0-.25l12.92-.27C450.27,225.85,450.21,226.34,450.13,226.91Z" style="fill:#263238"></path><path d="M314,127.19v0l-14.77.51c-.8,5.15-1.58,10.21-2.38,15.33a4.47,4.47,0,0,0-5.26,1.08,2.68,2.68,0,0,0-.58,2.15,2.48,2.48,0,0,0,1.69,1.22,4,4,0,0,0,4.89-3.44c.49-3,.93-6,1.45-9,.07-.4.48-1,.75-1.06,4-.15,8.07-.22,12.25-.3-.45,2.95-.91,5.89-1.37,8.84a4.46,4.46,0,0,0-5.26,1.09,2.42,2.42,0,0,0-.41.69h0a1.8,1.8,0,0,0,1.07,2.81c1.95.61,5.1-.65,5.35-3.22.06-.55.13-1.1.2-1.65.41-2.56.8-5.11,1.25-7.66.07-.4.48-1.05.75-1.06,4.06-.15,8.13-.21,12.34-.3-.49,3.11-1,6.07-1.42,9-2.52-.82-4.74-.17-5.72,1.59a1.79,1.79,0,0,0,1.07,2.8c1.95.62,5.1-.64,5.35-3.21s.74-5,1.12-7.43c.48-3.06,1-6.13,1.47-9.33Zm-14.48,4.94c.09-.64.16-1.18.24-1.83l12.86-.26c-.08.54-.17,1.09-.25,1.64Zm26.75-.91-12.93.45c.07-.55.14-1,.21-1.57a2.17,2.17,0,0,1,0-.25l12.91-.27Z" style="fill:#263238"></path><path d="M379,172.23v0l-10.72.38c-.58,3.73-1.15,7.41-1.72,11.13a3.25,3.25,0,0,0-3.83.78,2,2,0,0,0-.42,1.56,1.85,1.85,0,0,0,1.23.89,2.91,2.91,0,0,0,3.55-2.5c.35-2.17.67-4.34,1.05-6.5.05-.29.35-.77.55-.77,2.93-.11,5.86-.16,8.89-.22l-1,6.43a3.23,3.23,0,0,0-3.82.78,1.75,1.75,0,0,0-.3.5h0a1.29,1.29,0,0,0,.77,2c1.41.45,3.7-.47,3.89-2.33,0-.4.09-.8.14-1.2.3-1.86.58-3.71.91-5.56,0-.29.34-.77.54-.77,2.95-.11,5.9-.16,9-.22-.35,2.26-.69,4.4-1,6.56-1.83-.59-3.44-.12-4.15,1.16a1.29,1.29,0,0,0,.78,2c1.41.45,3.7-.47,3.88-2.33s.54-3.6.82-5.39c.34-2.23.69-4.45,1.06-6.78Zm-10.51,3.58.17-1.32,9.34-.19c-.06.39-.13.79-.19,1.19Zm19.42-.66-9.39.33c.05-.4.1-.75.15-1.14l0-.18,9.37-.2C388,174.39,388,174.74,387.89,175.15Z" style="fill:#263238"></path><path d="M268.49,159.42c.14.5.48,1.05.39,1.5a6.51,6.51,0,0,0,1.26,5.1,34.73,34.73,0,0,1,2.43,4.27c1.26,2.87.66,5.52-1.51,8,3-5.06.6-8.42-3.4-11.36a6.36,6.36,0,0,0-.33.93c-1.13,5.19-2.24,10.38-3.37,15.56a5.48,5.48,0,0,1-7,4.13c-2.31-.69-2.89-2.88-1.1-4.54,2-1.88,4.41-2.16,7.11-1.08,1.62-7.47,3.22-14.87,4.82-22.27Z" style="fill:#263238"></path><path d="M277.64,187.69l1.12-5.21a5.23,5.23,0,0,1,.11-.78c.1-.45-.25-1-.39-1.5l-.65.19c-1.61,7.4-3.21,14.8-4.83,22.26-2.7-1.07-5.08-.79-7.11,1.09-1.78,1.66-1.2,3.85,1.11,4.54a5.46,5.46,0,0,0,6.95-4.13c1.13-5.19,2.24-10.38,3.37-15.56A6,6,0,0,1,277.64,187.69Z" style="fill:#263238"></path><path d="M475,174.3l1.12-5.22a5.69,5.69,0,0,1,.12-.78c.1-.45-.25-1-.39-1.5l-.66.19q-2.4,11.1-4.82,22.27c-2.7-1.08-5.08-.8-7.11,1.08-1.79,1.66-1.21,3.85,1.11,4.54a5.47,5.47,0,0,0,6.95-4.13c1.13-5.18,2.24-10.37,3.37-15.56A7.76,7.76,0,0,1,475,174.3Z" style="fill:#263238"></path><path d="M466.44,162.27l1.12-5.22a5.62,5.62,0,0,1,.11-.78c.1-.45-.25-1-.39-1.5l-.65.19q-2.42,11.1-4.83,22.27c-2.7-1.08-5.08-.8-7.11,1.08-1.78,1.66-1.2,3.85,1.11,4.54a5.46,5.46,0,0,0,6.95-4.13c1.13-5.18,2.24-10.37,3.37-15.56A5.83,5.83,0,0,1,466.44,162.27Z" style="fill:#263238"></path></g><g id="freepik--Piano--inject-1"><rect x="430.62" y="333.8" width="23.87" height="6.47" style="fill:#263238;stroke:#263238;stroke-linecap:round;stroke-linejoin:round"></rect><polygon points="445.24 448.75 439.87 448.75 438.72 340.39 446.39 340.39 445.24 448.75" style="fill:#263238;stroke:#263238;stroke-linecap:round;stroke-linejoin:round"></polygon><rect x="453.79" y="333.8" width="23.87" height="6.47" style="fill:#263238;stroke:#263238;stroke-linecap:round;stroke-linejoin:round"></rect><polygon points="468.41 448.75 463.04 448.75 461.89 340.39 469.56 340.39 468.41 448.75" style="fill:#263238;stroke:#263238;stroke-linecap:round;stroke-linejoin:round"></polygon><rect x="621.13" y="333.8" width="23.87" height="6.47" style="fill:#263238;stroke:#263238;stroke-linecap:round;stroke-linejoin:round"></rect><polygon points="635.75 448.75 630.38 448.75 629.23 340.39 636.9 340.39 635.75 448.75" style="fill:#263238;stroke:#263238;stroke-linecap:round;stroke-linejoin:round"></polygon><rect x="644.3" y="333.8" width="23.87" height="6.47" style="fill:#263238;stroke:#263238;stroke-linecap:round;stroke-linejoin:round"></rect><polygon points="658.92 448.75 653.55 448.75 652.4 340.39 660.07 340.39 658.92 448.75" style="fill:#263238;stroke:#263238;stroke-linecap:round;stroke-linejoin:round"></polygon><path d="M673.34,285.72H429.79v9.48a26,26,0,0,1-26,26h-4.78v13H673.34Z" style="fill:#263238;stroke:#263238;stroke-linecap:round;stroke-linejoin:round"></path></g><g id="freepik--character-3--inject-1"><polygon points="538.95 259.48 528.55 271.54 533.65 284.51 543.38 277.7 538.95 259.48" style="fill:#92E3A9;stroke:#263238;stroke-linecap:round;stroke-linejoin:round"></polygon><path d="M577.05,307.45s-22.82,56-22.69,58.67,4.27,12.16,5.3,19.46,3.27,39.63,3.7,41.62,3.73,14.86,2.48,16.59S553,447.09,550,447.91s-5.9,2.29-10.91,2.54-9.42-1.21-9.55-3.88,6.48-4.33,9.08-5.8S547.5,431,547.5,431s-13-40.49-13.88-44.46-6.2-17.42-5-26.51,16.67-62.66,16.67-62.66l36.41-.78Z" style="fill:#263238;stroke:#263238;stroke-linecap:round;stroke-linejoin:round"></path><path d="M605.09,295.77s-6.62,69.86-7.36,75.25,3.62,12.53,2.69,20.93-10.3,42.3-10.59,43.32a24.58,24.58,0,0,0,.34,7c.45,2.32,1.18,3.62-.45,4.37a55,55,0,0,1-13.91,2.68c-5.34.26-15.65,1.44-17.68.87s-3.18-3.53-2.91-4.88,6.74-5.68,8.66-7.44,6.61-8.35,7.23-9.38,2.11-4.78,2-6.79,4-26.61,2.85-37.58-5.26-53.92-5.26-53.92l-.11-15.64,1.48-11.62Z" style="fill:#263238;stroke:#263238;stroke-linecap:round;stroke-linejoin:round"></path><path d="M541.57,182.45l9.87,1.79s6,44.57,6.81,53.37S562,296.69,562,296.69l-19.92.25-8-61-5.68-36.34S525.18,181.8,541.57,182.45Z" style="fill:#263238;stroke:#263238;stroke-linecap:round;stroke-linejoin:round"></path><path d="M534.76,209.09s7.11,64.7,7.2,71.62,4.07,22.55,3.15,23.83-4.45,5.16-5.25,4,.18-31.67-1.4-38.76-13-38.44-13.88-46.31,1-15.14,2.42-16.2A5.84,5.84,0,0,1,534.76,209.09Z" style="fill:#92E3A9;stroke:#263238;stroke-linecap:round;stroke-linejoin:round"></path><path d="M538.33,262.48s-10.46-25.59-8.82-47.16" style="fill:none;stroke:#263238;stroke-linecap:round;stroke-linejoin:round"></path><path d="M540.49,179.26a10.63,10.63,0,0,1,4.88-9.87c5.74-3.82,16.78,3.14,14.8,3.86a8.29,8.29,0,0,1-4.58-.15s4.94,5,3.16,7.42-6.45,3.57-9.61,3.06S542.84,182.57,540.49,179.26Z" style="fill:#263238;stroke:#263238;stroke-linecap:round;stroke-linejoin:round"></path><path d="M505.61,183.64s1.95,5,3,7,3.31,2.29,3.81,4.72a32,32,0,0,0,2.61,7c.83,1.66,3.45,1.15,4.38.92l.93-.24a11,11,0,0,0,2.44,3.66c1.37,1.06,5.13.69,5.13.69a2.62,2.62,0,0,0,2,2.54c2.1.65,5.83-.28,5.83-.28l3.87,2.07a105.82,105.82,0,0,0,5.27-15.72c2-8.4-.22-12.25-.22-12.25l-3.09-1.36s-2.7-12.88-5.79-18.19-8.82-6.93-18-5.35-17.9,15.77-17.87,20.3S500.68,186.9,505.61,183.64Z" style="fill:#fff;stroke:#263238;stroke-linecap:round;stroke-linejoin:round"></path><path d="M499.93,179.21c0-4.53,8.7-18.72,17.87-20.3s14.89,0,18,5.35c2.32,4,4.43,12.26,5.33,16.12-1,.44-2.46.05-4.74-.31a18.86,18.86,0,0,1-10.06-5.17c-.3-.27-.82,0-1.47.48.69,9.53,8.68,15.06,11.63,18.45s2.59,6.66,2,10.84-2.77,5-2.77,5-3.73.93-5.83.28a2.6,2.6,0,0,1-2-2.35,14.08,14.08,0,0,0,1.86-.47c2.6-.88,4.23-6,4.23-6,.78-3.25-2-6.32-4.71-11.47-1.95-3.71-5.25-9.11-6.94-11.84-1.44,1.49-2.91,3-3.86,3.13-2.06.29-.59-4.5-1.64-6.71s-3.83,2.64-4.88,4.39-6.36,5-6.36,5C500.68,186.9,500,183.73,499.93,179.21Z" style="fill:#263238;stroke:#263238;stroke-linecap:round;stroke-linejoin:round"></path><path d="M525.93,178.69s-17.33,15.93-17.11,16.49,4.39,5.06,7.22,4.93,3.34-1.11,2.47-3.33a18.44,18.44,0,0,0-3.25-4.74Z" style="fill:#263238;stroke:#263238;stroke-linecap:round;stroke-linejoin:round"></path><path d="M526.1,182.27s-2-5.75.21-7.37,6.29,1.39,7.37,4.17-.46,6.06-1.57,6.49" style="fill:#fff;stroke:#263238;stroke-linecap:round;stroke-linejoin:round"></path><path d="M547.13,183.62s2.73,5.44,3.46,20.49,4.62,59.13,5.07,73.45,5.84,33.6,6.67,35.29,4.81,2.24,7,2.13,11.3-1.54,26.56-8,23.36-13,22.78-14.72-28.83-99.24-30.48-102.63-11.15-5.39-20.27-4.94A140.69,140.69,0,0,1,547.13,183.62Z" style="fill:#92E3A9;stroke:#263238;stroke-linecap:round;stroke-linejoin:round"></path><path d="M559.7,259.52a63.4,63.4,0,0,1-2.28,8.56" style="fill:none;stroke:#263238;stroke-linecap:round;stroke-linejoin:round"></path><path d="M555.65,186.06s7.41,30.3,6.67,50.62c-.18,4.93-.56,9.31-1,13.13" style="fill:none;stroke:#263238;stroke-linecap:round;stroke-linejoin:round"></path><polyline points="551.44 216.44 549.93 220.96 541.51 214.76 538.77 225.46" style="fill:none;stroke:#fff;stroke-linecap:round;stroke-linejoin:round"></polyline><polygon points="547.13 219.37 544.51 226.42 554.28 284.8 551.31 294.84 544.4 279.85 541.84 227.54 539.35 221.97 541.51 214.76 547.13 219.37" style="fill:#fff"></polygon><path d="M531.64,270.08s-3-3.58-3.31-6.91-2.31-1.57-2.6.12.78,4.62,1,5.36,5.17,2.91,5.17,2.91Z" style="fill:#fff;stroke:#263238;stroke-linecap:round;stroke-linejoin:round"></path><path d="M524.23,207.63s-.62,6.36-1.46,8.27-3.89,4.1-3.89,4.1l-3.1-2.46Z" style="fill:#263238;stroke:#263238;stroke-linecap:round;stroke-linejoin:round"></path><path d="M518.88,220s-7.72,9.87-12.33,14.57-9.26,10.64-4.36,15.61,77.23,50.12,77.23,50.12,4.75,1.82,6.43,9.56S577.64,328.7,568,328.8s-18.1-8.24-26.75-13.78-17-1.59-16.74.44a11.53,11.53,0,0,0,.7,3L510.7,296.76a10.67,10.67,0,0,0,5.23.31c2.21-.67,14.85-5,22.49-1.1S555,309.7,560.79,311.64s4.39-1.52,1.68-3.81c-1.83-1.53-61.18-47.49-62.16-48.56s-7.72-4-9.13-9.37c-1.83-6.94,4.32-12.74,6.46-14.71s8.14-6.79,11.6-10.44c4.25-4.49,6.54-7.21,6.54-7.21Z" style="fill:#fff;stroke:#263238;stroke-linecap:round;stroke-linejoin:round"></path><circle cx="544.66" cy="307.49" r="4.74" transform="translate(-60.78 150.48) rotate(-14.91)" style="fill:#fff;stroke:#263238;stroke-linecap:round;stroke-linejoin:round"></circle><circle cx="553.37" cy="314.15" r="4.74" transform="translate(-77.28 229.36) rotate(-21.93)" style="fill:#fff;stroke:#263238;stroke-linecap:round;stroke-linejoin:round"></circle><circle cx="568.08" cy="317.9" r="4.74" transform="matrix(0.97, -0.26, 0.26, 0.97, -62.31, 155.45)" style="fill:#fff;stroke:#263238;stroke-linecap:round;stroke-linejoin:round"></circle><path d="M564.82,306.51a4.75,4.75,0,1,0,4.51-5A4.76,4.76,0,0,0,564.82,306.51Z" style="fill:#fff;stroke:#263238;stroke-linecap:round;stroke-linejoin:round"></path><path d="M539.51,288a4,4,0,1,0,3.81-4.19A4,4,0,0,0,539.51,288Z" style="fill:#fff;stroke:#263238;stroke-linecap:round;stroke-linejoin:round"></path><path d="M510.34,269a2.93,2.93,0,1,0-.2-4.14A2.94,2.94,0,0,0,510.34,269Z" style="fill:#fff;stroke:#263238;stroke-linecap:round;stroke-linejoin:round"></path><path d="M503.45,263.65a2.94,2.94,0,1,0-.2-4.15A2.93,2.93,0,0,0,503.45,263.65Z" style="fill:#fff;stroke:#263238;stroke-linecap:round;stroke-linejoin:round"></path><path d="M521.6,278.64a2.94,2.94,0,1,0-.2-4.15A2.94,2.94,0,0,0,521.6,278.64Z" style="fill:#fff;stroke:#263238;stroke-linecap:round;stroke-linejoin:round"></path><path d="M528.59,282.8a2.94,2.94,0,1,0-.2-4.14A2.94,2.94,0,0,0,528.59,282.8Z" style="fill:#fff;stroke:#263238;stroke-linecap:round;stroke-linejoin:round"></path><path d="M570.67,278.92s-14.3,6.77-14.53,7.15-4.7,10.27-4.7,10.27.78.7,1.27.68,3.71-5.26,3.71-5.26l2.63-2s-3.62,7-3.85,7.5-1.17,3.77-.55,3.87a2.24,2.24,0,0,0,2-1.46c.45-1,2.37-4.83,2.6-5.21s2.6-2.61,2.6-2.61-3.69,8.11-3.79,8.74-.51,2.25,0,2.35a2.36,2.36,0,0,0,2-1.46c.45-1,1.43-3.66,1.87-4.8a17.17,17.17,0,0,1,2-3.07s-2.07,5.93-2,7,.21,1.85.82,1.69,1.39-2.17,1.6-2.8.83-3.39,1.06-3.77,3.69-3,4.76-4.08,5.65-8.57,5.65-8.57Z" style="fill:#fff;stroke:#263238;stroke-linecap:round;stroke-linejoin:round"></path><path d="M570.49,186.08s13.8-.92,16.86.91,24.84,52.94,24,55.21-33.63,45.67-33.63,45.67l-10.6-9.38,20.68-37.36-15.25-23.74" style="fill:#92E3A9;stroke:#263238;stroke-linecap:round;stroke-linejoin:round"></path><path d="M515.94,278.54s2.86-4,3.52-3.87,1.59.5,1.54,1.24-1.94,4.21-3.15,4.68S515.44,280.21,515.94,278.54Z" style="fill:#fff;stroke:#263238;stroke-linecap:round;stroke-linejoin:round"></path><path d="M519.53,279.52s3.19-3.93,3.76-4,1.35.59,1.3,1.42-2.42,4.39-2.81,4.91-2.62.37-3,0-.16-1.64-.16-1.64Z" style="fill:#fff;stroke:#263238;stroke-linecap:round;stroke-linejoin:round"></path><path d="M523.25,279.92s2.63-3.66,3.21-3.52,1.39,1.41,1.24,1.75-1.61,4.28-2.41,4.81a2.94,2.94,0,0,1-2.82-.36c-.34-.4-.69-.79-.69-.79Z" style="fill:#fff;stroke:#263238;stroke-linecap:round;stroke-linejoin:round"></path><path d="M526.3,281.59s1.77-2.63,2.18-2.65,1.06-.05,1.26.6-1,4.08-1.61,4.35S524.93,284.13,526.3,281.59Z" style="fill:#fff;stroke:#263238;stroke-linecap:round;stroke-linejoin:round"></path></g><g id="freepik--character-2--inject-1"><path d="M383.2,307.84s8.45,1.05,9.51,1.36,5,3.77,10.42,6.34,7.55,1.51,8.3,2.26a6.85,6.85,0,0,1,1.21,3.48c0,.6-1,2-1.81.75a10.49,10.49,0,0,0-1.81-2.11h-6c-1.36,0,5.43,1.81,5.28,2.41s.45,1.21-1.21.91-7.24-1.21-8-1.36,0,.45-4.08-1.06a12.49,12.49,0,0,1-6-5l-5.13-.76Z" style="fill:#fff;stroke:#263238;stroke-linecap:round;stroke-linejoin:round"></path><polygon points="356.62 303.31 384.4 306.78 384.86 318.86 359.04 319.92 356.62 303.31" style="fill:#92E3A9;stroke:#263238;stroke-linecap:round;stroke-linejoin:round"></polygon><polygon points="345.67 246.78 352.01 250.68 353.72 256.54 345.45 254.11 345.67 246.78" style="fill:#fff;stroke:#263238;stroke-linecap:round;stroke-linejoin:round"></polygon><path d="M346.65,251.9s6.24,6.23,6.44,8.24a13.88,13.88,0,0,1-.4,4.63c-.2.81,5,1.72,5.44,8.55a60.75,60.75,0,0,1-1.52,14.89s-1.91-16.2-5.73-23-4.63-8.65-5.43-11.06S346.65,251.9,346.65,251.9Z" style="fill:#263238;stroke:#263238;stroke-linecap:round;stroke-linejoin:round"></path><path d="M326.54,200.2s6.64-.2,10.86,2.22,5.23,8,7.44,10.05,8.05,3.63,8.85,4.43a3.51,3.51,0,0,1,.41,4.22c-1,1.61-2.22,3.42-2.22,3.42s2.82,6.44,2.62,9.86-2.82,4.22-4,4.63a21.6,21.6,0,0,0-4,2.81l-1.81,9.86-26.15-10.06a22,22,0,0,1-.6-3.42v-1s-11.15-4.48-11.26-13.07C306.43,208.85,317.09,200.41,326.54,200.2Z" style="fill:#fff;stroke:#263238;stroke-linecap:round;stroke-linejoin:round"></path><path d="M317.89,237.21c2.82.21,4.43-3.62,5.23-5.63s.8-2.61,2-4.22a6.81,6.81,0,0,0,1.61-3.82c.2-1.41-2-2.62-3-3.82s1.81-5.44,1.21-8.05-5-.6-6.84-1.41,2-5.43,6-7.64a22.59,22.59,0,0,0,3.66-2.4c-.77,0-1.25,0-1.25,0-9.45.21-20.11,8.65-19.91,23.94C306.74,232.73,317.89,237.21,317.89,237.21Z" style="fill:#263238;stroke:#263238;stroke-linecap:round;stroke-linejoin:round"></path><path d="M331,232.59c-.2.6-3.21,2.21-5.43,2.21s-6-3.22-5.83-7.24,7.84-.8,7.84-.8" style="fill:#fff;stroke:#263238;stroke-linecap:round;stroke-linejoin:round"></path><path d="M338.81,217.3a4.06,4.06,0,0,0,4-2.81" style="fill:none;stroke:#263238;stroke-linecap:round;stroke-linejoin:round"></path><path d="M340.22,210.66s-2.62-1.2-4.63,4.23" style="fill:none;stroke:#263238;stroke-linecap:round;stroke-linejoin:round"></path><path d="M350.88,226s-2,3.82-6.24.81" style="fill:none;stroke:#263238;stroke-linecap:round;stroke-linejoin:round"></path><polygon points="317.89 238.22 346.45 248.48 347.06 258.33 316.08 243.45 317.89 238.22" style="fill:#fff;stroke:#263238;stroke-linecap:round;stroke-linejoin:round"></polygon><path d="M361.43,335.74s26.5,7.4,36.82,13.81c6,3.74,1.88,14.3,1.3,16s-28.63,59.93-28.92,60.8a18.58,18.58,0,0,1-1.72,2.87l-5.47.87,1.44,4.6s8.63,6,10.93,6.9,6,2,6,3.17.29,2.59-1.44,2.88a63.1,63.1,0,0,1-16.4-.29c-7.48-1.15-23-4-23-4s-1.44,0-.29-3.16,7.19-19,7.19-19L368,365.37l-24.45-1.43Z" style="fill:#263238;stroke:#263238;stroke-linecap:round;stroke-linejoin:round"></path><path d="M392.63,352.63l25.43,71.63-1.73,2.88a40.84,40.84,0,0,0,6.91,1.15c2.3,0,15.53-1.44,15.53-1.44s2.76.25,1.44,3.45c-1,2.4-4.31,6.33-9.49,8.92s-9.78,4-13,5.47-6.33,3.45-8.34,2.88-5.76-12.09-5.76-12.09l-5.17,1.73-31.65-70.29-30.42-.49,10.86-30.81S380.55,334.79,392.63,352.63Z" style="fill:#263238;stroke:#263238;stroke-linecap:round;stroke-linejoin:round"></path><line x1="370.14" y1="369.74" x2="380.04" y2="394.24" style="fill:none;stroke:#fff;stroke-linecap:round;stroke-linejoin:round"></line><path d="M362.33,446.08c-1.81-2.05-5.89-.91-6.8-2.95s-.91-20.41-3.18-26.08c-1.94-4.87-10.88-5.73-13.39-5.87V372.26h-5v38.95c-3,.22-11.11,1.23-13,5.84-2.27,5.67-2.27,24-3.18,26.08s-5,.9-6.8,2.95,4.76,3.62,8.39,2.26a7,7,0,0,0,4.76-7.48c-.22-3.18.91-19.28,2.95-22s6.83-2.56,6.83-2.56v30.37a2.53,2.53,0,0,0,5,0l.44-30.37s4.79-.16,6.83,2.56,3.18,18.82,2.95,22a7,7,0,0,0,4.76,7.48C357.57,449.7,364.15,448.12,362.33,446.08Z" style="fill:#fff;stroke:#263238;stroke-linecap:round;stroke-linejoin:round"></path><rect x="313.41" y="359.13" width="46.05" height="14.61" style="fill:#fff;stroke:#263238;stroke-linecap:round;stroke-linejoin:round"></rect><rect x="313.41" y="359.13" width="46.05" height="8.41" style="fill:#263238;stroke:#263238;stroke-linecap:round;stroke-linejoin:round"></rect><path d="M316.08,243.45S301.6,263.77,302.6,270.2s6.64,45.06,6.64,45.06L301,358.1s10.87,5.63,32,8.25,34.59-3.82,34.59-3.82-2.21-18.71-4-47.07-7.44-38.82-11.26-47.27-6-11.06-6-11.06Z" style="fill:#92E3A9;stroke:#263238;stroke-linecap:round;stroke-linejoin:round"></path><path d="M338.26,334.23a112.66,112.66,0,0,0,13.77.24l-.31,4.7a63.24,63.24,0,0,1-25.06-.63" style="fill:none;stroke:#263238;stroke-linecap:round;stroke-linejoin:round"></path><path d="M326.66,332.9s3,.51,7.48,1" style="fill:none;stroke:#263238;stroke-linecap:round;stroke-linejoin:round"></path><path d="M357.23,288a29.93,29.93,0,0,1,1.69,5.17" style="fill:none;stroke:#263238;stroke-linecap:round;stroke-linejoin:round"></path><path d="M314.13,248l21.92,12.22h6.58L340.75,264s9,9.58,14.51,19.85" style="fill:none;stroke:#263238;stroke-linecap:round;stroke-linejoin:round"></path><path d="M401,300.46s4.84,3,6.1,3.49,2.52.48,3.59,1.45,1.26,2.91,2.23,2,.58-2.62-.39-3.68-2.91-1.17-3.39-1.75-2-2.62-2-2.62Z" style="fill:none;stroke:#263238;stroke-linecap:round;stroke-linejoin:round"></path><path d="M390.3,296.15s7-3.42,8.65-3.62,7.24,1.21,9.25,1.21,5.63-.41,7.24.6,3.62,6,3.62,6,1.08,3.09.69,3.58c0,0-.39,1.55-.87,1.84s-1,0-1.26-.58a25.07,25.07,0,0,0-3.78-4.46c-1-.68-2.23-.19-3.78.1s-2.43.87-4.46.58-7.46-1.07-7.76-1.07-4.94,1.75-4.94,1.75Z" style="fill:#fff;stroke:#263238;stroke-linecap:round;stroke-linejoin:round"></path><path d="M411.22,297.17s4.56,1.84,5.62,2.9,2.62,4,2.33,4.85" style="fill:none;stroke:#263238;stroke-linecap:round;stroke-linejoin:round"></path><path d="M410.74,294.55s4.84,1.06,5.91,1.94a6.66,6.66,0,0,1,1.65,2.42" style="fill:none;stroke:#263238;stroke-linecap:round;stroke-linejoin:round"></path><path d="M316.88,257.13s-7.44.4-10.25,9.85,8,25.95,12.47,30.17,22.12,29.37,24.33,29.37,51.5-21.32,51.5-21.32l-3.22-10.66-34.2,6.24-2.41-4.23-2-.8L336.6,266.38" style="fill:#92E3A9;stroke:#263238;stroke-linecap:round;stroke-linejoin:round"></path></g><g id="freepik--character-1--inject-1"><path d="M125.19,295.37s-1.75,12,.65,21.2,8.53,32.79,8.31,37.82A98.49,98.49,0,0,1,132,368.6c-.43,2-3.93,11.36-3.93,21S132,432.2,132,432.2s-.21,2.41-.43,5a57.68,57.68,0,0,0,.22,7.43l-.44,1.53c1.12,2.08,12.27,2.61,18.42,2.84,6.57.25,17.64,0,20.27-1.09s1.75-2.19-.22-3.28-13.55-6.77-14.87-7.87-3.93-5.46-3.93-5.46,1.31-27.11,1.53-35.41,5.68-30.38,5.68-31.7a46.25,46.25,0,0,1,1.32-6.12s4.15,12.24,4.37,14-2.41,11.37-.22,20.11,6.86,39.32,6.86,41.94,1.09,10.49,1.09,10.49,2.19,3.06,3.94,3.06a36.79,36.79,0,0,0,5.68-.66c1.09-.21,9.4,1.32,12.46,1.32s12.46-1.53,13.33-3.5-.43-3.06-2-3.06-11.59-4.37-13.12-5.9a7.17,7.17,0,0,1-1.75-3.94s-5.33-26.63-5.33-33.41,3.72-25.57,3.72-39.34-3.72-45.9-3.72-47,2.84-17.27,2.84-17.27S149,303.46,125.19,295.37Z" style="fill:#263238;stroke:#263238;stroke-linecap:round;stroke-linejoin:round"></path><path d="M144.2,304.77s-3.49,14-6.77,17.49" style="fill:none;stroke:#fff;stroke-linecap:round;stroke-linejoin:round"></path><path d="M132.64,396c.15,1.52.36,3.17.64,5" style="fill:none;stroke:#fff;stroke-linecap:round;stroke-linejoin:round"></path><path d="M135.24,310.67s-1.09,20.33,2.84,30.82-2.62,29.51-3.71,35c-.81,4.05-2.22,7.86-2,15.25" style="fill:none;stroke:#fff;stroke-linecap:round;stroke-linejoin:round"></path><polyline points="162.54 348.59 167.37 332.53 174.37 322.91" style="fill:none;stroke:#fff;stroke-linecap:round;stroke-linejoin:round"></polyline><line x1="160.6" y1="355.04" x2="161.51" y2="352" style="fill:none;stroke:#fff;stroke-linecap:round;stroke-linejoin:round"></line><path d="M180.39,200.05a112.79,112.79,0,0,1,8.38,9.17c3.17,4.08,8.95,10.76,8.95,10.76a51.5,51.5,0,0,0,1.58,8.38c1.48,6,4.42,7.59,4.42,7.59s-1.13,1.25-10.3-.68-12-3.85-12-3.85L178.92,199Z" style="fill:#fff;stroke:#263238;stroke-linecap:round;stroke-linejoin:round"></path><path d="M194.55,219.19s-2.61,10.64-1.13,13.93" style="fill:none;stroke:#263238;stroke-linecap:round;stroke-linejoin:round"></path><path d="M189,215s-.79,12.57,2,16.87" style="fill:none;stroke:#263238;stroke-linecap:round;stroke-linejoin:round"></path><path d="M204.74,216.58s-3.51-.79-5.44.57-3.62,1.13-3.62,5-.79,10.31,2.95,13.48,9.17,2.15,10.75,1,3.74-4.76,3.29-7.36S204.74,216.58,204.74,216.58Z" style="fill:#fff;stroke:#263238;stroke-linecap:round;stroke-linejoin:round"></path><path d="M215.61,172.53s-.79,9.51-.22,11.21,2.72,5,2.72,6.79-5.89,13-8.84,18.35-6.68,8-7.7,11.89,1.59,9.29,5,10.88,4.19,1.24,5.55.34,10.76-32.4,11.78-37a33.57,33.57,0,0,1,1.47-5.55s3.52-6.46,3.74-8.27-3.4-10-5.09-8.94-3.06,1.58-3.74,1.35-.68-2.26-1.93-2.15A7.23,7.23,0,0,0,215.61,172.53Z" style="fill:#fff;stroke:#263238;stroke-linecap:round;stroke-linejoin:round"></path><rect x="213.22" y="117.92" width="8.9" height="14.93" transform="translate(-14.32 29.03) rotate(-7.39)" style="fill:#9c9c9c;stroke:#263238;stroke-linecap:round;stroke-linejoin:round"></rect><path d="M214.22,133.36s-.3,10.4-.21,15.64a100.56,100.56,0,0,0,1.56,13.21l9.55-1.61L223,132.22Z" style="fill:#9c9c9c;stroke:#263238;stroke-linecap:round;stroke-linejoin:round"></path><path d="M213.05,126.73c.15,1.35-.15,2.49-.67,2.55s-1.07-1-1.22-2.34.15-2.49.67-2.55S212.9,125.38,213.05,126.73Z" style="fill:#263238;stroke:#263238;stroke-linecap:round;stroke-linejoin:round"></path><path d="M224.51,125c.15,1.36-.15,2.5-.67,2.56s-1.07-1-1.22-2.34.15-2.5.67-2.56S224.36,123.63,224.51,125Z" style="fill:#263238;stroke:#263238;stroke-linecap:round;stroke-linejoin:round"></path><path d="M234.31,235.7s28.81,16.63,35.8,22.55c4.31,3.66,11.33,18.45,9.79,27.46s1,11.38,1.49,13.93-.33,3.66-3.17,4.19-7.11,3.57-6.06,9.8,6.51,18.72,11,21,5.33,2.62,6.74,2.08,3.12-.81,3.09,1.73a9.16,9.16,0,0,0,1.62,4.83s6.05,11.94,8.15,23.26a45.11,45.11,0,0,1-4.08,29.31c-4.06,7.57-.6-17.51-2.5-23.19s-2.89-15.85-12.13-21.34-16-6.16-20.5-27.68,2.81-19.16,5.19-28.45a35.89,35.89,0,0,0-6.36-29.73c-6.65-8.57-19.27-15-23.44-19.81A19.58,19.58,0,0,1,234.31,235.7Z" style="fill:#bababa;stroke:#263238;stroke-linecap:round;stroke-linejoin:round"></path><path d="M215.57,162.21l7.59,76.5s-16.68,12.37-24.65,24.86-7.2,21.5-6.39,27.51,3.69,15.05,3.37,16.55-2.75,3.86-1,4.48,3.33-2.05,7.19.7,6.16,10,4.86,16.87-1.74,17.08-3.55,17.95-6-1-6.61,1.11.86,2.41.23,4.5-7.36,11.9-7.57,26.89,11.44,39.46,30,44.22,43.12,5.71,59.44-3.36a44.48,44.48,0,0,0,22.77-40.78c-.69-14.71-12.18-29.57-12.43-33.48s1.93-9-1.1-6.91-8.69-.42-12.54-4.38-4.94-11.47-6.3-21.39,2.24-10.16,6.45-11,2.11-.57,1.28-5.08,1.65-11.37,0-19.8a40.27,40.27,0,0,0-12.3-21.47c-5.63-4.88-16.65-10.43-21.11-13.5a74.78,74.78,0,0,1-8.88-7.49l-9.19-75.1Z" style="fill:#9c9c9c;stroke:#263238;stroke-linecap:round;stroke-linejoin:round"></path><line x1="251.46" y1="423.29" x2="253.98" y2="442.2" style="fill:none;stroke:#263238;stroke-linecap:round;stroke-linejoin:round;stroke-width:2px"></line><rect x="251.86" y="440.94" width="5.78" height="9.37" rx="1.14" transform="translate(-47.19 30.52) rotate(-6.28)" style="fill:#9c9c9c;stroke:#263238;stroke-linecap:round;stroke-linejoin:round"></rect><path d="M222,328.18s-1.78,1.23-.91,2.63a2,2,0,0,0,3.54-1.21c0-2.14-2.7-4.82-5.6-4.49s-4.23,4.85-4.94,10.51,1.94,14.88.85,20.53-2.09,5.39-3.84,4.48a2,2,0,0,1-1.1-2.53s1.8-2.37.18-3.53-3.77-.55-4.44,2.21,5.08,5.86,7.35,5.77,5.58-2.7,5.79-9.36-1.16-15.51-1.6-20.3S219.19,324.74,222,328.18Z" style="fill:#263238"></path><path d="M254.53,324.62s2.26.73,1.7,2.39a2.24,2.24,0,0,1-4.17-.2c-.6-2.15,1.64-5.64,4.88-6.14s5.88,3.67,8.16,9.17,1.88,15.57,4.57,21,3.7,4.83,5.36,3.41a2,2,0,0,0,.51-2.88s-2.58-1.86-1.13-3.5,3.94-1.65,5.4.94-3.94,7.38-6.43,7.95-6.77-1.1-8.79-7.77-2.87-16-3.68-20.93S256.7,320.33,254.53,324.62Z" style="fill:#263238"></path><polyline points="223.97 242.72 227.71 306.32 242.05 304.41 234.77 238.24" style="fill:none;stroke:#263238;stroke-linecap:round;stroke-linejoin:round"></polyline><path d="M227.72,341.81l20.34-2a.83.83,0,0,1,.9.72v.09a.83.83,0,0,1-.75.93l-20.35,1.87a.83.83,0,0,1-.9-.77h0A.82.82,0,0,1,227.72,341.81Z" style="fill:none;stroke:#263238;stroke-linecap:round;stroke-linejoin:round"></path><polyline points="217.44 162.13 231.87 341.44 237.93 377.27" style="fill:none;stroke:#dedede;stroke-linecap:round;stroke-linejoin:round"></polyline><polyline points="220.15 161.75 235.73 341.77 241.34 377.57" style="fill:none;stroke:#dedede;stroke-linecap:round;stroke-linejoin:round"></polyline><polyline points="222.6 161.3 239.91 340.12 245.27 376.64" style="fill:none;stroke:#dedede;stroke-linecap:round;stroke-linejoin:round"></polyline><path d="M225.12,160.6c-.05-1.22,15,144.3,15,144.3l8.3,71.06" style="fill:none;stroke:#dedede;stroke-linecap:round;stroke-linejoin:round"></path><path d="M235.14,378.2l17.18-1.76s-3.43,17.1-2.4,28.88,5.74,17.43,4.71,19.61-6.61,1.9-7.18.3.77-12.35-1.71-20.76S235.85,384.59,235.14,378.2Z" style="fill:#9c9c9c;stroke:#263238;stroke-linecap:round;stroke-linejoin:round"></path><path d="M149.88,192.22S128.61,214.38,126,217s-7.06,12.89-6.47,17.47,7.66,44.11,7.66,44.9-5,16.94-3.58,17.74,15.54,7,30.28,7.37,28.9-2.39,31.09-3.78,4.18-2.79,4.58-8-7.83-82.51-9.4-88.08-13.67-13.71-19.89-15.53S149.88,192.22,149.88,192.22Z" style="fill:#92E3A9;stroke:#263238;stroke-linecap:round;stroke-linejoin:round"></path><path d="M154.07,187.25l-4.19,5s6.41,17.93,14.39,24.34,12.56,7.72,12.56,7.72a116.24,116.24,0,0,0,.79-15.31c-.27-6.67-.53-8.37-.53-8.37Z" style="fill:#fff;stroke:#263238;stroke-linecap:round;stroke-linejoin:round"></path><path d="M162.7,214.46l8-8.27,7,5.4-.92,12.69S165.45,219,162.7,214.46Z" style="fill:none;stroke:#263238;stroke-linecap:round;stroke-linejoin:round"></path><polygon points="167.15 209.89 171.07 213.03 170.03 220.61 176.83 224.28 177.22 218 173.17 212.5 174.34 208.84 170.74 206.19 167.15 209.89" style="fill:#263238;stroke:#263238;stroke-linecap:round;stroke-linejoin:round"></polygon><path d="M192.44,170s1.91,5.29,1,8.21-2.36,5.85-2.36,7.08,1.46,6.19.56,7.31a3.51,3.51,0,0,1-2.7,1s-3.26,5.63-3.71,6.07l-.45.45s-2.36,4.16-4.61,4.5-5.73-1.68-5.73-1.68l-3.71,3.26s-10.57-8.32-13.38-12.6l-2.81-4.27s-1.24-2.7-.79-3.82,1.24-1.24,1.46-1.69,2.36-11.13,2.36-11.13,6.41,1.12,17.77-1,15.4-3.82,15.4-3.82Z" style="fill:#fff;stroke:#263238;stroke-linecap:round;stroke-linejoin:round"></path><path d="M175.35,171.67c-11.36,2.13-17.77,1-17.77,1s-2.13,10.68-2.36,11.13a13.66,13.66,0,0,0,6.19,1.69,20.72,20.72,0,0,0,3.93-.56,6.82,6.82,0,0,1-.56-1.24c-.11-.45-1.24-5.17,1.46-6.52s3.38,1.23,3.38,2.13-1.92,10.57-1.92,10.57,1.47,1.24,1.8,1.13,4.73-10.68,4.73-10.68l7.08-2.48-1.24-4.95v-2.18C178.66,171,177.1,171.34,175.35,171.67Z" style="fill:#263238;stroke:#263238;stroke-linecap:round;stroke-linejoin:round"></path><path d="M189,193.59s-4.61-.45-5.95.12-3.38,1.91-2.7,2.92,3.15.56,3.15.56a8.62,8.62,0,0,0,2.81.23C187.16,197.19,189.52,195.84,189,193.59Z" style="fill:#263238;stroke:#263238;stroke-linecap:round;stroke-linejoin:round"></path><path d="M188.17,182.8l-.45,2.14s-2,1-3-.79" style="fill:none;stroke:#263238;stroke-linecap:round;stroke-linejoin:round"></path><path d="M191,180.66s-1.35-1.46-4.27-.45" style="fill:none;stroke:#263238;stroke-linecap:round;stroke-linejoin:round"></path><polygon points="174.45 202.93 170.63 200.23 171.53 205.17 174.45 202.93" style="fill:#263238;stroke:#263238;stroke-linecap:round;stroke-linejoin:round"></polygon><path d="M157.36,171.65,146,175.79s13.7,0,22.35-.18,27.23-5.77,29.93-7,4.87-2.88,4.15-2.52-11.36.18-11.36.18-.72-11.36-2.16-12.62-15.69-4.87-17.85-4-14.25,7.39-14.43,8.48S157.36,171.65,157.36,171.65Z" style="fill:#9c9c9c;stroke:#263238;stroke-linecap:round;stroke-linejoin:round"></path><path d="M190.77,162.64a56.46,56.46,0,0,1-10.59,3.52c-8.59,2.18-17.58,2-23.1,1.53.15,2.23.28,4,.28,4a56.86,56.86,0,0,0,33.71-5.41S191,164.67,190.77,162.64Z" style="fill:#92E3A9;stroke:#263238;stroke-linecap:round;stroke-linejoin:round"></path><path d="M169.53,278.24l40.77,8.38s4.35-6.19,4.94-6.74,1.38-.63,2.7-1.74,3.79-3.83,4.26-2.23a5.11,5.11,0,0,1-1.18,4.23c-.46.21-2.73,1.58-2.73,1.58s.07.66,1.18.55,7.28,2.58,7.28,2.58,9,3.41,8.88,4.24a1.18,1.18,0,0,1-1.17,1.1c-.48,0-8.36-2.15-8.36-2.15s9.1,3.54,9,4a1,1,0,0,1-.93.89c-.59,0-8.55-2.61-8.55-2.61s7.82,3.6,7.54,3.81a1.4,1.4,0,0,1-1.46.39c-.85-.23-6.7-2-6.7-2s5.72,2.33,5.68,2.52-.25.45-1,.46-4.61-.72-7.43-.93a100.16,100.16,0,0,1-10.55-2.24s-33.62,2.91-41.57,2.82-9.19-1.25-9.19-1.25Z" style="fill:#fff;stroke:#263238;stroke-linecap:round;stroke-linejoin:round"></path><path d="M130.42,214.59s-6.82,8.73-8.29,16.6,5.68,22.32,5.68,22.32,10.39,24.66,12.93,27.7a37.77,37.77,0,0,0,5.64,5.38s-1.13,3.23.57,4.22,7.55,2.06,7.55,2.06L165.77,274s-.91-4.35-2.37-6.18a11.16,11.16,0,0,0-3.13-2.66,15.89,15.89,0,0,1-1.68-2.47s-4.88-35.4-7.5-39.25S138,213.36,130.42,214.59Z" style="fill:#fff;stroke:#263238;stroke-linecap:round;stroke-linejoin:round"></path><path d="M159.27,269.7c.27-.52-6.42,21-5.15,19.26s6.91-12.69,7.15-13.53" style="fill:none;stroke:#263238;stroke-linecap:round;stroke-linejoin:round"></path><path d="M165.51,271.4s-9.51,20.5-11,21.47,3.45,4.27,5.51,4.07,12-17.46,12.33-19.46S168.17,270.81,165.51,271.4Z" style="fill:#fff;stroke:#263238;stroke-linecap:round;stroke-linejoin:round"></path><path d="M218.31,169.6s-3.95.16-3.78,1.32,1.56,4.35,3.12,4.68,3-.66,2.61-2.06S219.05,169.43,218.31,169.6Z" style="fill:#fff;stroke:#263238;stroke-linecap:round;stroke-linejoin:round"></path><path d="M227.36,168.28s-3.87,3.05-3.7,3.7.57,1.57,1.31,1.49,4.12-2.14,4.53-3.38S229,167.71,227.36,168.28Z" style="fill:#fff;stroke:#263238;stroke-linecap:round;stroke-linejoin:round"></path><path d="M228.51,171.82s-3.78,3.37-3.86,4,.65,1.31,1.48,1.23,4.27-2.63,4.77-3,.24-2.63-.17-3-1.64-.09-1.64-.09Z" style="fill:#fff;stroke:#263238;stroke-linecap:round;stroke-linejoin:round"></path><path d="M229.09,175.52s-3.54,2.8-3.38,3.37,1.48,1.32,1.81,1.16,4.2-1.81,4.69-2.64a2.89,2.89,0,0,0-.49-2.79l-.82-.66Z" style="fill:#fff;stroke:#263238;stroke-linecap:round;stroke-linejoin:round"></path><path d="M230.9,178.48s-2.55,1.89-2.55,2.31,0,1.07.65,1.23,4-1.15,4.28-1.81S233.36,177,230.9,178.48Z" style="fill:#fff;stroke:#263238;stroke-linecap:round;stroke-linejoin:round"></path></g></svg>
